# xmcd
#
# Track frame offsets: 
#        150
#        16061
#        30845
#        44538
#        56822
#        70549
#        83092
#        97967
#        106802
#        118179
#        127015
#        137893
#        148014
#
# Disc length: 2231 seconds
#
# Revision: 0
# Processed by: cddbd v1.5.1PL0 Copyright (c) Steve Scherf et al.
# Submitted via: ExactAudioCopy v0.95b2
#
DISCID=ab08b50d
DTITLE=Flying Burrito Brothers - The Gold Collection (Fine Tune 1145-2
DTITLE=)
DYEAR=1900
DGENRE=Countryrock
TTITLE0=Midnight Magic Woman
TTITLE1=Tell Me It Ain't So
TTITLE2=Too Much Honky Tonking
TTITLE3=Why Must The Ending Always Be So Sad
TTITLE4=Another Shade Of Grey
TTITLE5=Run To The Night
TTITLE6=Coast To Coast
TTITLE7=You
TTITLE8=My Abandoned Heart
TTITLE9=I Swear I Don't Miss Her Anymore
TTITLE10=That's When You Know It's Over
TTITLE11=Baby, How'd We Ever Get This Way
TTITLE12=Louisiana
EXTD=
EXTT0=
EXTT1=
EXTT2=
EXTT3=
EXTT4=
EXTT5=
EXTT6=
EXTT7=
EXTT8=
EXTT9=
EXTT10=
EXTT11=
EXTT12=
PLAYORDER=
